<svg id="Logo" xmlns="http://www.w3.org/2000/svg" viewBox="0 0 250 100"><defs><style>.cls-1{fill:#10439f;}</style></defs><g id="Logo-2" data-name="Logo"><g id="Isotipo"><path class="cls-1" d="M92.42,1.79a48,48,0,0,0-34.84,14.9H33.14a4.49,4.49,0,0,0-4.5,4.5v.62a4.49,4.49,0,0,0,4.5,4.5H53a2.2,2.2,0,0,1,2.2,2.2v.26A2.2,2.2,0,0,1,53,31H6.84a4.49,4.49,0,0,0-4.5,4.5v.62a4.49,4.49,0,0,0,4.5,4.5H47.41a2.21,2.21,0,0,1,2.2,2.2v.26a2.21,2.21,0,0,1-2.2,2.2H21a4.5,4.5,0,0,0-4.5,4.5v.62a4.5,4.5,0,0,0,4.5,4.5H47.41a2.21,2.21,0,0,1,2.2,2.2v.25a2.2,2.2,0,0,1-2.2,2.2H29.21a4.5,4.5,0,0,0-4.5,4.5v.63a4.5,4.5,0,0,0,4.5,4.5H53a2.19,2.19,0,0,1,2.2,2.2v.25A2.19,2.19,0,0,1,53,73.8H23.24a4.49,4.49,0,0,0-3.51,4.39v.62a4.49,4.49,0,0,0,4.5,4.5H57.58A48.21,48.21,0,1,0,92.42,1.79Zm0,84.24a36,36,0,1,1,36-36A36,36,0,0,1,92.42,86Z"/><circle class="cls-1" cx="8.15" cy="50.06" r="4.81"/><circle class="cls-1" cx="16.08" cy="64.34" r="4.81"/><path class="cls-1" d="M110.23,24.17a7,7,0,0,0-3.14-.7A6.74,6.74,0,0,0,102.61,25a4.68,4.68,0,0,0-1.8,3.72V53.32H100L85.16,28.7a14.17,14.17,0,0,0-3.35-3.87,7,7,0,0,0-4.32-1.36,7.06,7.06,0,0,0-4.73,1.66,5.08,5.08,0,0,0-2,4V71.3A4.66,4.66,0,0,0,72.64,75a6.73,6.73,0,0,0,4.44,1.51A6.61,6.61,0,0,0,81.49,75a4.7,4.7,0,0,0,1.79-3.72V46.68h.82L98.94,71.3a15.21,15.21,0,0,0,3.42,3.87,7,7,0,0,0,4.32,1.36,6.9,6.9,0,0,0,4.69-1.66,5.11,5.11,0,0,0,1.92-4V28.7a4.59,4.59,0,0,0-.82-2.65A5.7,5.7,0,0,0,110.23,24.17Z"/></g><g id="Dev"><path class="cls-1" d="M246,39a4.63,4.63,0,0,0-2.67-.75,4.23,4.23,0,0,0-4.33,3.2l-5.11,19.9h-.79L228,41.45a4.21,4.21,0,0,0-4.32-3.2,4.48,4.48,0,0,0-2.52.72,3.86,3.86,0,0,0-1.57,2,4.31,4.31,0,0,0,0,2.84l8,26.79a6.36,6.36,0,0,0,2.12,3.09,6.63,6.63,0,0,0,7.55,0,6.29,6.29,0,0,0,2.12-3.09l8-26.65a4.9,4.9,0,0,0,.07-2.88A3.72,3.72,0,0,0,246,39Z"/><path class="cls-1" d="M208.47,39.14a15.08,15.08,0,0,0-13.52,0,12.64,12.64,0,0,0-4.84,4.3,10.45,10.45,0,0,0-1.77,5.83V63.13A10.17,10.17,0,0,0,190.15,69a12.93,12.93,0,0,0,4.95,4.27,15.82,15.82,0,0,0,12,.78,14.2,14.2,0,0,0,4.16-2.24,9.62,9.62,0,0,0,2.24-2.49,5,5,0,0,0,.83-2.63,3,3,0,0,0-1-2.31,3.69,3.69,0,0,0-2.56-.89,4.92,4.92,0,0,0-2.2.47,5.93,5.93,0,0,0-1.81,1.45,6.65,6.65,0,0,1-2.12,1.85,5.74,5.74,0,0,1-2.52.5,6,6,0,0,1-2.71-.57,4.23,4.23,0,0,1-1.77-1.6,4.6,4.6,0,0,1-.63-2.45V59.22h12.9a7.8,7.8,0,0,0,3.77-.78,3,3,0,0,0,1.42-2.92V49.27a10.45,10.45,0,0,0-1.77-5.83A12.64,12.64,0,0,0,208.47,39.14Zm-10.89,7.68a4,4,0,0,1,1.69-1.6,5.51,5.51,0,0,1,4.88,0,4.08,4.08,0,0,1,1.69,1.6,4.88,4.88,0,0,1,.59,2.45v3.2H197v-3.2A4.88,4.88,0,0,1,197.58,46.82Z"/><path class="cls-1" d="M175.47,27.15a21,21,0,0,0-9.39-2H155.85a6.07,6.07,0,0,0-4.09,1.43A4.34,4.34,0,0,0,150.11,30V70a4.24,4.24,0,0,0,.75,2.45,5.17,5.17,0,0,0,2,1.75,6.62,6.62,0,0,0,2.94.64h10.23a21,21,0,0,0,9.39-2,14.8,14.8,0,0,0,6.37-5.76,16.35,16.35,0,0,0,2.25-8.63V41.54a16.35,16.35,0,0,0-2.25-8.63A14.8,14.8,0,0,0,175.47,27.15Zm-3,31.31a8.51,8.51,0,0,1-.79,3.83,5.29,5.29,0,0,1-2.2,2.35,6.89,6.89,0,0,1-3.38.78H161.6V34.58h4.48a7.24,7.24,0,0,1,3.38.74,5.09,5.09,0,0,1,2.2,2.35,8.78,8.78,0,0,1,.79,3.87Z"/></g></g></svg>